<svg id="Calque_1" data-name="Calque 1" xmlns="http://www.w3.org/2000/svg" viewBox="0 0 480 480"><defs><style>.cls-1{fill:#009af9;}</style></defs><title>faqBtn</title><path class="cls-1" d="M256,16C123.36,16,16,123.34,16,256S123.34,496,256,496,496,388.66,496,256,388.66,16,256,16Zm0,460C134.69,476,36,377.31,36,256S134.69,36,256,36s220,98.69,220,220S377.31,476,256,476Z" transform="translate(-16 -16)"/><path class="cls-1" d="M203.07,128.93a10,10,0,0,0-14.14,14.14L301.86,256,188.93,368.93a10,10,0,0,0,14.14,14.14l120-120a10,10,0,0,0,0-14.14Z" transform="translate(-16 -16)"/></svg>