<?xml version="1.0" encoding="utf-8"?>
<!-- Generator: Adobe Illustrator 21.0.0, SVG Export Plug-In . SVG Version: 6.00 Build 0)  -->
<svg version="1.1" id="Calque_1" xmlns="http://www.w3.org/2000/svg" xmlns:xlink="http://www.w3.org/1999/xlink" x="0px" y="0px"
	 viewBox="0 0 229.6 52.5" enable-background="new 0 0 229.6 52.5" xml:space="preserve">
<g>
	<g>
		<g>
			<path fill="#1D1D1B" d="M5.6,33.5l-2.1,9.8c-0.2,1-0.3,1.4-0.3,1.7c0,0.4,0.2,0.7,0.6,0.7c0.1,0,0.3,0,0.4-0.1l0.1,1.6
				c-0.6,0.2-1.2,0.3-1.8,0.3c-1.4,0-2.1-0.7-2.1-1.9c0-0.4,0.1-1,0.2-1.7l2.1-10.1c0.3-1.6,0.4-2.8,0.2-3.6l2.8-0.9
				C6,30.2,6,32,5.6,33.5z"/>
			<path fill="#1D1D1B" d="M17,40.6c-1,1-2.7,1.5-5.2,1.5c-0.7,0-1.3-0.1-1.5-0.1c0,0.2-0.1,0.9-0.1,1.3c0,1.5,0.9,2.2,2.2,2.2
				c1.3,0,2.3-0.4,3.5-1.3l0.8,1.6c-1.5,1.2-2.9,1.7-5,1.7c-2.6,0-4.3-1.6-4.3-4.5c0-2.4,1.1-5.1,2.7-6.7c1.2-1.2,2.6-1.7,4.1-1.7
				c2.4,0,3.9,1.1,3.9,3.3C18.1,39.1,17.7,39.9,17,40.6z M13.9,36.8c-1.4,0-2.6,1.1-3.1,3.4c0.1,0,0.6,0.1,1.1,0.1
				c1.5,0,2.5-0.2,3.1-0.8c0.3-0.3,0.5-0.7,0.5-1.2C15.4,37.4,15,36.8,13.9,36.8z"/>
			<path fill="#1D1D1B" d="M36.2,45c-1.7,1.7-3.4,2.3-6.5,2.3h-4.2l3.6-16.7h3.7c2.6,0,4.1,0.3,5.2,1.5c0.9,1,1.4,2.3,1.4,4.4
				C39.5,39.3,38.2,43.1,36.2,45z M35.9,34.1c-0.6-0.9-1.4-1.2-2.8-1.2h-1.7l-2.6,12.2h1.7c1.8,0,3.1-0.7,3.8-1.7
				c1.6-2.2,2.1-5.4,2.1-6.7C36.5,35.5,36.4,34.7,35.9,34.1z"/>
			<path fill="#1D1D1B" d="M50.6,40.6c-1,1-2.7,1.5-5.2,1.5c-0.7,0-1.3-0.1-1.5-0.1c-0.1,0.2-0.1,0.9-0.1,1.3c0,1.5,0.9,2.2,2.2,2.2
				c1.3,0,2.3-0.4,3.4-1.3l0.8,1.6c-1.5,1.2-2.9,1.7-5,1.7c-2.6,0-4.3-1.6-4.3-4.5c0-2.4,1.1-5.1,2.7-6.7c1.2-1.2,2.6-1.7,4.1-1.7
				c2.4,0,3.9,1.1,3.9,3.3C51.7,39.1,51.3,39.9,50.6,40.6z M47.5,36.8c-1.4,0-2.6,1.1-3.1,3.4c0.1,0,0.6,0.1,1.1,0.1
				c1.5,0,2.5-0.2,3.1-0.8c0.3-0.3,0.5-0.7,0.5-1.2C49,37.4,48.6,36.8,47.5,36.8z M52.3,31.4l-5.6,2.4l-0.8-1.5l5.3-3.2L52.3,31.4z"
				/>
			<path fill="#1D1D1B" d="M62.8,45.6c-1.1,1.3-2.7,2-4.3,2c-1.1,0-2-0.2-2.7-0.5c0,0.1-0.1,0.7-0.2,1.1l-0.8,3.8l-2.7,0.6l2.9-13.8
				c0.3-1.5,0.2-2.2,0-3l2.5-1c0.2,0.5,0.4,1.4,0.3,2.2c1.1-1.3,2.7-2.1,4.1-2.1c2.1,0,3.2,1.5,3.2,4C65.2,41,64.2,44.1,62.8,45.6z
				 M60.9,37.1c-1,0-2.2,0.7-3.3,2.3l-1.2,5.5c0.4,0.4,1.2,0.6,2,0.6c1.1,0,1.9-0.6,2.4-1.3c0.9-1.3,1.5-3.8,1.5-5.3
				C62.3,37.7,61.9,37.1,60.9,37.1z"/>
			<path fill="#1D1D1B" d="M77.3,38.5l-1,4.8c-0.3,1.5-0.2,2.1,0.4,2.8l-2.2,1.6c-0.7-0.5-0.9-1.2-0.9-2c-0.9,1.2-2.1,1.9-3.7,1.9
				c-1.9,0-3.2-1.3-3.2-3.9c0-2.7,1-5.3,2.6-6.9c1.3-1.3,2.9-2,4.9-2c1.4,0,2.8,0.3,3.8,0.9C77.8,36.4,77.4,37.7,77.3,38.5z
				 M73.9,36.9c-1.1,0-1.9,0.2-2.8,1.4c-1.1,1.3-1.6,3.7-1.6,5.4c0,1.3,0.4,1.8,1.3,1.8c1.1,0,2.3-1.1,2.9-2.3l1.3-6
				C74.8,37,74.3,36.9,73.9,36.9z"/>
			<path fill="#1D1D1B" d="M87.3,37.5c-0.2-0.1-0.5-0.2-0.8-0.2c-0.8,0-1.8,0.7-2.8,2.1L82,47.3h-2.6l1.7-8.2
				c0.4-1.7,0.3-2.6,0.1-3.4l2.5-1c0.3,0.6,0.4,1.5,0.2,2.4c1.1-1.4,2.5-2.3,3.6-2.3c0.4,0,0.7,0,1,0.2L87.3,37.5z"/>
			<path fill="#1D1D1B" d="M94.9,37h-2.3l-1.4,6.6c-0.1,0.5-0.1,0.9-0.1,1.2c0,0.8,0.4,1,1.1,1c0.4,0,0.8-0.1,1.2-0.2v1.6
				c-0.8,0.3-1.7,0.5-2.5,0.5c-1.6,0-2.6-0.8-2.6-2c0-0.4,0.1-1.1,0.2-1.7l1.5-7h-1.4l0.4-1.9h1.4c0.2-1.1,0.5-2.1,0.8-3l2.8-0.7
				c-0.3,1-0.7,2.5-1,3.6h2.9L94.9,37z"/>
			<path fill="#1D1D1B" d="M105.9,40.6c-1,1-2.7,1.5-5.2,1.5c-0.7,0-1.3-0.1-1.5-0.1c0,0.2-0.1,0.9-0.1,1.3c0,1.5,0.9,2.2,2.2,2.2
				c1.3,0,2.3-0.4,3.5-1.3l0.8,1.6c-1.5,1.2-2.9,1.7-5,1.7c-2.6,0-4.3-1.6-4.3-4.5c0-2.4,1.1-5.1,2.7-6.7c1.2-1.2,2.6-1.7,4.1-1.7
				c2.4,0,3.9,1.1,3.9,3.3C107,39.1,106.6,39.9,105.9,40.6z M102.8,36.8c-1.4,0-2.6,1.1-3.1,3.4c0.1,0,0.7,0.1,1.1,0.1
				c1.5,0,2.5-0.2,3.1-0.8c0.3-0.3,0.5-0.7,0.5-1.2C104.3,37.4,103.9,36.8,102.8,36.8z"/>
			<path fill="#1D1D1B" d="M125.7,38.8l-1.8,8.5h-2.6l1.8-8.3c0.1-0.4,0.1-0.8,0.1-1.1c0-0.6-0.3-0.9-1-0.9c-0.9,0-2.1,0.9-3.1,2.2
				l-1.7,8h-2.6l1.7-8.1c0.1-0.5,0.2-1,0.2-1.3c0-0.5-0.2-0.8-0.9-0.8c-0.9,0-2.1,0.8-3.2,2.3l-1.7,8h-2.6l1.8-8.5
				c0.3-1.3,0.2-2.3,0-3.1l2.5-1c0.2,0.6,0.3,1.5,0.2,2.3c1.4-1.5,2.9-2.1,4.2-2.1c1.3,0,2.1,0.7,2.2,2.1c1.5-1.6,2.9-2.2,4.2-2.2
				c1.4,0,2.4,0.9,2.4,2.5C125.9,37.7,125.8,38.3,125.7,38.8z"/>
			<path fill="#1D1D1B" d="M137.7,40.6c-1,1-2.7,1.5-5.2,1.5c-0.7,0-1.3-0.1-1.5-0.1c0,0.2-0.1,0.9-0.1,1.3c0,1.5,0.9,2.2,2.2,2.2
				c1.3,0,2.3-0.4,3.5-1.3l0.8,1.6c-1.5,1.2-2.9,1.7-5,1.7c-2.6,0-4.3-1.6-4.3-4.5c0-2.4,1.1-5.1,2.7-6.7c1.2-1.2,2.6-1.7,4.1-1.7
				c2.4,0,3.9,1.1,3.9,3.3C138.8,39.1,138.4,39.9,137.7,40.6z M134.6,36.8c-1.4,0-2.6,1.1-3.1,3.4c0.1,0,0.7,0.1,1.1,0.1
				c1.5,0,2.5-0.2,3.1-0.8c0.3-0.3,0.5-0.7,0.5-1.2C136.1,37.4,135.7,36.8,134.6,36.8z"/>
			<path fill="#1D1D1B" d="M151.5,38.6l-1.9,8.7H147l1.7-8.1c0.1-0.5,0.2-0.9,0.2-1.2c0-0.7-0.3-1-1-1c-0.9,0-2.1,0.6-3.4,2.3
				l-1.7,8h-2.6l1.8-8.4c0.3-1.4,0.3-2.2,0-3.1l2.5-1c0.2,0.6,0.4,1.4,0.2,2.3c1.2-1.4,2.7-2.2,4.4-2.2c1.5,0,2.4,0.9,2.4,2.4
				C151.6,37.7,151.6,38.2,151.5,38.6z"/>
			<path fill="#1D1D1B" d="M160.7,37h-2.3l-1.4,6.6c-0.1,0.5-0.1,0.9-0.1,1.2c0,0.8,0.4,1,1.1,1c0.4,0,0.8-0.1,1.2-0.2v1.6
				c-0.8,0.3-1.7,0.5-2.5,0.5c-1.6,0-2.6-0.8-2.6-2c0-0.4,0-1.1,0.2-1.7l1.5-7h-1.4l0.4-1.9h1.4c0.2-1.1,0.5-2.1,0.8-3l2.8-0.7
				c-0.3,1-0.7,2.5-1,3.6h2.9L160.7,37z"/>
		</g>
	</g>
	<g>
		<g>
			<g>
				<path fill="#1D1D1B" d="M13.9,7.6c-0.8-0.7-1.9-1-3-1c-1.3,0-2.8,0.7-3.7,1.8c-1.7,1.9-2.7,6.5-2.7,8.8c0,2.6,1.3,3.8,3.5,3.8
					c1.2,0,2.3-0.4,3.6-1.4l1.4,2.6C11.1,23.4,9.3,24,7,24c-4.4,0-7-2.5-7-7c0-3.1,1.2-6.8,3-9.2c2.1-2.9,5.3-4.4,8.5-4.4
					c2,0,3.8,0.6,4.7,1.6L13.9,7.6z"/>
				<path fill="#1D1D1B" d="M28.3,13.7c0,5.1-2.7,10.2-8.5,10.2c-3.3,0-5.2-1.8-5.2-5.2c0-5.5,3.4-10,8.4-10
					C26.3,8.7,28.3,10.5,28.3,13.7z M24.5,2l4.4,3.8l-1.5,2.1l-3.5-2.2l-4.3,2.2l-1-2.1L24.5,2z M18.6,19.1c0,1.4,0.7,2,1.8,2
					c2.5,0,3.8-4.6,3.8-7.4c0-1.7-0.6-2.2-1.8-2.2C19.9,11.6,18.6,16.9,18.6,19.1z"/>
				<path fill="#1D1D1B" d="M37.5,11.6H35L33.5,19c-0.1,0.5-0.1,0.9-0.1,1.3c0,0.8,0.4,1.1,1.3,1.1c0.3,0,1-0.1,1.4-0.3v2.3
					c-1.1,0.4-2.2,0.6-3.3,0.6c-2.2,0-3.4-1.1-3.4-2.5c0-0.5,0.1-1.2,0.2-1.9l1.7-7.9h-1.5L30.3,9h1.4c0.3-1.4,0.5-2.4,0.9-3.5l4-1
					c-0.4,1.3-0.9,2.9-1.2,4.4h3.4L37.5,11.6z"/>
				<path fill="#1D1D1B" d="M49.7,22c-2,1.4-3.9,2-5.9,2c-3.5,0-5.5-1.8-5.5-5.4c0-3,1.3-6.1,3.3-8c1.4-1.4,3.1-1.9,5-1.9
					c2.9,0,5,1.1,5,4c0,2.8-2.5,5-7.4,5c-1,0-1.7-0.2-1.7-0.2s-0.1,0.9-0.1,1.3c0,1.7,0.9,2.3,2.5,2.3c1.3,0,2.7-0.6,4.1-1.5
					L49.7,22z M44.1,15c1.7,0,3.6-0.6,3.6-2c0-0.9-0.4-1.5-1.5-1.5c-1.4,0-2.5,0.9-3.1,3.4C43,14.9,43.6,15,44.1,15z"/>
				<path fill="#1D1D1B" d="M63.2,12.5c-1.3-0.7-2.5-1-3.6-1c-1.3,0-2.2,0.5-2.2,1.5c0,0.7,0.5,1.1,1.5,1.5l1.7,0.6
					c1.4,0.5,2.9,1.5,2.9,3.3c0,2.9-2.3,5.8-7,5.8c-2.1,0-4-0.7-5.7-1.6l1.5-2.8c1.1,0.8,3.1,1.5,4.7,1.5c1.3,0,2.3-0.9,2.3-1.8
					c0-0.7-0.6-1.1-1.9-1.5l-1.6-0.5c-1.5-0.5-2.7-1.5-2.7-3.4c0-2.5,1.9-5.3,6.7-5.3c1.9,0,3.6,0.6,4.8,1.3L63.2,12.5z"/>
				<path fill="#1D1D1B" d="M83.3,18.3c-0.8,3.6-0.7,4.8-0.6,5.3h-3.3c-0.1-0.2-0.2-0.9-0.1-1.3C78.4,23.3,77,24,75.6,24
					c-3,0-4.5-1.7-4.5-5.1c0-2.9,1.1-6.1,3.2-8c1.3-1.3,3-2,4.7-2c1.1,0,2.2,0.3,2.5,0.4c0-0.2,0.1-0.8,0.3-1.7l1.1-5l3.7,0.6
					L83.3,18.3z M78.9,11.9c-0.7,0-1.5,0.4-2,1.1c-1.1,1.4-1.8,4-1.8,5.8c0,1.4,0.5,2.1,1.5,2.1c0.9,0,2.3-1.1,2.7-1.9l1.5-6.6
					C80.4,12.1,79.7,11.9,78.9,11.9z"/>
				<path fill="#1D1D1B" d="M87.9,10.4c1.3-0.5,2.3-1.1,2.3-1.7c0-0.3-0.1-0.6-0.4-0.8c-0.8-0.5-1-1.2-1-2.1c0-1.4,1.1-2.5,2.5-2.5
					c1.7,0,2.8,1.1,2.8,3.1c0,2.5-2.8,5-5.2,5.6L87.9,10.4z"/>
			</g>
		</g>
		<g>
			<g>
				<path fill="#1D1D1B" d="M103.1,3.7l2,19.9h-4.1l-0.4-4.7h-5.8l-2.4,4.7H88L98.8,3.7H103.1z M100.3,15.6l-0.3-4.1
					c-0.1-1.7-0.1-3.4-0.1-3.4s-1,2.4-1.7,3.8l-1.8,3.7H100.3z"/>
				<path fill="#1D1D1B" d="M112.2,8.5c0.2,0.5,0.5,1.5,0.3,2.4c1.3-1.3,2.7-2.2,4.1-2.2c0.5,0,0.8,0.1,1.3,0.3l-1.6,3.4
					c-0.3-0.2-0.7-0.3-1.1-0.3c-0.7,0-1.6,0.4-2.8,2l-2,9.5h-3.8l2.1-9.6c0.4-1.8,0.3-3.1,0.1-4L112.2,8.5z"/>
				<path fill="#1D1D1B" d="M122.1,8.5c0.2,0.5,0.4,1.6,0.3,2.3c1.4-1.5,3.1-2.2,4.7-2.2c1.5,0,2.5,0.7,2.7,2.2
					c1.6-1.6,3.2-2.2,4.7-2.2c1.6,0,2.9,0.9,2.9,3c0,0.6-0.1,1.2-0.2,1.9l-2.1,10h-3.7l2.1-9.6c0.1-0.5,0.2-0.9,0.2-1.3
					c0-0.6-0.3-0.8-0.9-0.8c-1,0-2.2,0.9-3,2.2l-2,9.5H124l2-9.5c0.1-0.6,0.2-1.1,0.2-1.4c0-0.6-0.3-0.8-0.9-0.8
					c-1,0-2.1,0.8-3.1,2.2l-2,9.5h-3.7l2.1-10c0.3-1.3,0.2-3-0.1-3.7L122.1,8.5z"/>
				<path fill="#1D1D1B" d="M152.4,13.7c0,5.1-2.7,10.2-8.5,10.2c-3.3,0-5.2-1.8-5.2-5.2c0-5.5,3.4-10,8.4-10
					C150.4,8.7,152.4,10.5,152.4,13.7z M142.7,19.1c0,1.4,0.7,2,1.8,2c2.5,0,3.8-4.6,3.8-7.4c0-1.7-0.6-2.2-1.8-2.2
					C144,11.6,142.7,16.9,142.7,19.1z"/>
				<path fill="#1D1D1B" d="M158.5,8.5c0.2,0.5,0.5,1.5,0.3,2.4c1.3-1.3,2.7-2.2,4.1-2.2c0.5,0,0.8,0.1,1.3,0.3l-1.7,3.4
					c-0.3-0.2-0.7-0.3-1.1-0.3c-0.7,0-1.6,0.4-2.8,2l-2,9.5h-3.8l2.1-9.6c0.4-1.8,0.3-3.1,0.1-4L158.5,8.5z"/>
			</g>
		</g>
	</g>
	<g>
		<path fill="#FFFFFF" d="M208.9,19.3c-5.6,0.6-5.6,1.8-5.5,6.2c-4.3-12.1-15.9-14.8-33.1-13v7c5.6-1.4,13.3-1.8,19.1,0.6
			c5.5,2.3,11.6,6.8,13.4,13.9h0h5.8c-1.9-4.6-3.4-8.4,4.8-9.7c5-0.8,12,0.1,16.1,0.9v-4.3C220.1,19.1,214.1,18.7,208.9,19.3z"/>
		<path fill="#1B97D9" d="M170.3,12.5c17.3-1.8,28.8,0.8,33.1,13c-0.1-4.3-0.1-5.6,5.5-6.2c5.2-0.5,11.2-0.2,20.7,1.5V0h-59.3V12.5z
			"/>
		<path fill="#33BC56" d="M213.4,24.2c-8.2,1.4-6.7,5.1-4.8,9.7h-5.8h0c-1.8-7.1-7.9-11.7-13.4-13.9c-5.9-2.4-13.5-2-19.1-0.6v32.4
			h59.3V25.1C225.4,24.3,218.4,23.4,213.4,24.2z"/>
	</g>
</g>
</svg>
