<svg id="Calque_1" data-name="Calque 1" xmlns="http://www.w3.org/2000/svg" xmlns:xlink="http://www.w3.org/1999/xlink" viewBox="0 0 279.5 374.96"><defs><style>.cls-1{fill:none;}.cls-2{fill:#00789b;}.cls-3{fill:#fff;}.cls-4{fill:#722278;}.cls-5{fill:#313483;}.cls-6{fill:#00a2e2;}.cls-7{fill:#a5bf00;}.cls-8{fill:#ffd600;}.cls-9{fill:#e77400;}.cls-10{fill:#db3943;}.cls-11{fill:#b2d8e2;}.cls-12{clip-path:url(#clip-path);}</style><clipPath id="clip-path" transform="translate(-2.09 -4.76)"><path class="cls-1" d="M281.59,317a16.71,16.71,0,0,1-16.71,16.71H18.81A16.72,16.72,0,0,1,2.09,317V22.46c0-11.17,9-19,20-17.52L264.88,40a16.73,16.73,0,0,1,16.71,16.73Z"/></clipPath></defs><title>Logo-CD31</title><path class="cls-2" d="M281.59,317a16.71,16.71,0,0,1-16.71,16.71H18.81A16.72,16.72,0,0,1,2.09,317V22.46c0-11.17,9-19,20-17.52L264.88,40a16.73,16.73,0,0,1,16.71,16.73Z" transform="translate(-2.09 -4.76)"/><polygon class="cls-2" points="45.99 323.07 47.18 374.96 115.57 324.24 45.99 323.07"/><path class="cls-3" d="M204.62,138.07c4.91-8.77,7.68-22.6,6.71-36.16S204.38,83,198.67,82s-26.78-2.62-54.13,63S130.8,233.46,151,234.93c5.79.14,15.08-1.19,21.7-10.47-3.81,10.61-4.89,19.47-.79,26.48,4.94-5.1,8.09-4.93,9.75-8.41s20.55-74.94,20.55-74.94c2-.16,3.82-2.48,5-4.8s6-9.95,6-9.95c-17.57,2.66-43.1,9.62-44.26,11.11s-3.81,7.46-3.48,10.94,7.63,2.82,11.78,2,12.42-5.31,12.42-5.31c-6.46,18.08-17.9,55.71-37.46,54.22s-5-45.6,6.3-72.78,28.92-55.83,35.14-54.54C204.06,100.62,193.61,134.11,204.62,138.07Z" transform="translate(-2.09 -4.76)"/><path class="cls-3" d="M32.45,291a15.83,15.83,0,0,1-3.12.31c-2.36,0-5.57-1.16-5.57-6v-2.89c0-4.95,3.21-6,5.57-6a15,15,0,0,1,3.12.31c.25.08.43.18.43.46v1.32a.36.36,0,0,1-.39.41h0c-.69-.06-2-.16-3.08-.16-1.65,0-2.85.89-2.85,3.69v2.89c0,2.74,1.2,3.69,2.85,3.69,1.05,0,2.39-.1,3.08-.16h0a.36.36,0,0,1,.39.41v1.32C32.88,290.86,32.7,291,32.45,291Z" transform="translate(-2.09 -4.76)"/><path class="cls-3" d="M40,291.35c-3.25,0-5.61-1.81-5.61-6.15v-2.66c0-4.33,2.36-6.14,5.61-6.14s5.62,1.81,5.62,6.14v2.66C45.59,289.54,43.22,291.35,40,291.35Zm2.86-8.81c0-2.6-.93-3.76-2.86-3.76s-2.85,1.16-2.85,3.76v2.66c0,2.6.92,3.77,2.85,3.77s2.86-1.17,2.86-3.77Z" transform="translate(-2.09 -4.76)"/><path class="cls-3" d="M58.43,291.19h-2a1.06,1.06,0,0,1-1.2-.71l-4.37-9.59c-.06-.12-.12-.16-.18-.16s-.1,0-.1.16v9.91a.37.37,0,0,1-.37.39H48.54a.39.39,0,0,1-.39-.39V277.34a.78.78,0,0,1,.79-.78h2.12c.42,0,.63.11.87.63l4.59,10.12c0,.1.1.16.16.16s.1-.06.1-.18V276.93a.35.35,0,0,1,.37-.37h1.69a.36.36,0,0,1,.38.37V290.4A.79.79,0,0,1,58.43,291.19Z" transform="translate(-2.09 -4.76)"/><path class="cls-3" d="M65.86,291.35a15.53,15.53,0,0,1-3.49-.35.43.43,0,0,1-.37-.4v-1.42a.38.38,0,0,1,.37-.37h0c.79.1,2.76.2,3.49.2,1.75,0,2.28-.63,2.28-1.78,0-.77-.37-1.16-1.67-1.93l-2.6-1.55c-1.83-1.09-2.32-2.23-2.32-3.61,0-2.17,1.26-3.74,4.92-3.74a22.86,22.86,0,0,1,3.78.35.41.41,0,0,1,.36.38v1.45a.34.34,0,0,1-.34.36h0c-1.3-.12-2.6-.2-3.88-.2-1.46,0-2.07.51-2.07,1.4,0,.65.34,1.05,1.62,1.75l2.36,1.32c2.17,1.21,2.74,2.47,2.74,4C71,289.22,69.8,291.35,65.86,291.35Z" transform="translate(-2.09 -4.76)"/><path class="cls-3" d="M81.7,291.07a18.3,18.3,0,0,1-3.74.28c-2.56,0-4.55-.69-4.55-4v-6.87c0-3.35,2-4,4.55-4a19.52,19.52,0,0,1,3.74.27c.3,0,.39.14.39.42v1.26a.38.38,0,0,1-.39.39h-4c-1.14,0-1.56.4-1.56,1.7v2.12h5.34a.4.4,0,0,1,.4.4v1.42a.4.4,0,0,1-.4.39H76.12v2.54c0,1.3.42,1.7,1.56,1.7h4a.38.38,0,0,1,.39.39v1.26C82.09,290.94,82,291,81.7,291.07Z" transform="translate(-2.09 -4.76)"/><path class="cls-3" d="M87.1,291.19H85.15a.39.39,0,0,1-.4-.39V276.93a.38.38,0,0,1,.4-.37H87.1a.37.37,0,0,1,.39.37V290.8A.39.39,0,0,1,87.1,291.19Z" transform="translate(-2.09 -4.76)"/><path class="cls-3" d="M98.35,291.07a21.11,21.11,0,0,1-3.35.28c-2.56,0-4.55-.69-4.55-4V277a.38.38,0,0,1,.39-.39h2a.39.39,0,0,1,.4.39v10.36c0,1.3.39,1.7,1.53,1.7h3.63a.39.39,0,0,1,.39.39v1.26C98.74,290.94,98.64,291,98.35,291.07Z" transform="translate(-2.09 -4.76)"/><path class="cls-3" d="M109.93,291.35a32.85,32.85,0,0,1-3.88-.24.53.53,0,0,1-.51-.61V277.25a.54.54,0,0,1,.51-.62,35.7,35.7,0,0,1,3.88-.23c3.94,0,6.19,2.13,6.19,6v2.89C116.12,289.22,113.87,291.35,109.93,291.35Zm3.47-8.92c0-3-1.5-3.73-3.47-3.73-.73,0-1.24,0-1.65.06V289c.41,0,.92.05,1.65.05,2,0,3.47-.76,3.47-3.72Z" transform="translate(-2.09 -4.76)"/><path class="cls-3" d="M127,291.07a18.3,18.3,0,0,1-3.74.28c-2.56,0-4.55-.69-4.55-4v-6.87c0-3.35,2-4,4.55-4a19.52,19.52,0,0,1,3.74.27c.3,0,.4.14.4.42v1.26a.39.39,0,0,1-.4.39h-4c-1.14,0-1.55.4-1.55,1.7v2.12h5.34a.4.4,0,0,1,.39.4v1.42a.4.4,0,0,1-.39.39H121.4v2.54c0,1.3.41,1.7,1.55,1.7h4a.39.39,0,0,1,.4.39v1.26C127.37,290.94,127.27,291,127,291.07Zm-.9-18.22-2.33,2.44a.52.52,0,0,1-.47.26h-1.69c-.12,0-.18-.06-.18-.14a.26.26,0,0,1,.08-.19l1.87-2.37c.18-.21.25-.29.51-.29h2.07c.14,0,.22.06.22.14A.24.24,0,0,1,126.07,272.85Z" transform="translate(-2.09 -4.76)"/><path class="cls-3" d="M134.52,285.74c-.51,0-1.3-.06-1.75-.08v5.14a.38.38,0,0,1-.38.39h-2a.39.39,0,0,1-.39-.39V277.25c0-.4.23-.54.63-.6a28.06,28.06,0,0,1,3.86-.25c3,0,5.67,1.06,5.67,4.55v.18C140.19,284.61,137.55,285.74,134.52,285.74Zm2.95-4.79c0-1.66-1-2.29-2.95-2.29-.41,0-1.4,0-1.75.08v4.69c.31,0,1.41.06,1.75.06,2.13,0,2.95-.79,2.95-2.36Z" transform="translate(-2.09 -4.76)"/><path class="cls-3" d="M151.8,291.19h-2.09a.41.41,0,0,1-.38-.33l-.9-3.74H143.9l-.91,3.74a.41.41,0,0,1-.37.33h-2.09a.34.34,0,0,1-.36-.33.87.87,0,0,0,0-.1l3.23-12.35a2.87,2.87,0,0,1,5.48,0l3.23,12.35a.87.87,0,0,0,0,.1A.34.34,0,0,1,151.8,291.19ZM146.48,279c-.06-.24-.12-.32-.32-.32s-.25.08-.31.32l-1.42,5.85h3.47Z" transform="translate(-2.09 -4.76)"/><path class="cls-3" d="M164.41,291.19H162c-.21,0-.29-.19-.39-.39l-2.84-5.26h-.27c-.52,0-1.3-.06-1.76-.08v5.34a.37.37,0,0,1-.37.39h-2a.39.39,0,0,1-.4-.39V277.25c0-.4.24-.54.63-.6a28.33,28.33,0,0,1,3.87-.25c3,0,5.67,1.08,5.67,4.45V281a4,4,0,0,1-2.66,4l3.09,5.75a.27.27,0,0,1,0,.16A.22.22,0,0,1,164.41,291.19Zm-3-10.34c0-1.48-1-2.11-2.95-2.11-.42,0-1.4,0-1.76.08v4.43c.32,0,1.42.06,1.76.06,2,0,2.95-.55,2.95-2.28Z" transform="translate(-2.09 -4.76)"/><path class="cls-3" d="M175.2,278.84h-3.44v12a.39.39,0,0,1-.4.39h-2a.38.38,0,0,1-.39-.39v-12h-3.45a.36.36,0,0,1-.39-.35v-1.56a.37.37,0,0,1,.39-.37h9.63a.38.38,0,0,1,.4.37v1.56A.37.37,0,0,1,175.2,278.84Z" transform="translate(-2.09 -4.76)"/><path class="cls-3" d="M185.37,291.07a18.3,18.3,0,0,1-3.74.28c-2.56,0-4.55-.69-4.55-4v-6.87c0-3.35,2-4,4.55-4a19.52,19.52,0,0,1,3.74.27c.3,0,.39.14.39.42v1.26a.38.38,0,0,1-.39.39h-4c-1.14,0-1.56.4-1.56,1.7v2.12h5.34a.4.4,0,0,1,.4.4v1.42a.4.4,0,0,1-.4.39h-5.34v2.54c0,1.3.42,1.7,1.56,1.7h4a.38.38,0,0,1,.39.39v1.26C185.76,290.94,185.67,291,185.37,291.07Z" transform="translate(-2.09 -4.76)"/><path class="cls-3" d="M200.74,291.19h-2a.37.37,0,0,1-.32-.39v-9.16c0-.14,0-.2-.06-.2s-.06.06-.1.12l-1.89,3.76a.71.71,0,0,1-.63.34h-2a.72.72,0,0,1-.63-.34l-1.91-3.76c0-.06-.08-.12-.1-.12s-.06.06-.06.2v9.16a.36.36,0,0,1-.31.39h-2a.3.3,0,0,1-.34-.29V277.34a.79.79,0,0,1,.79-.78h1.62a.83.83,0,0,1,.73.47l3,6c.1.17.14.27.22.27s.12-.1.21-.27l3-6a.82.82,0,0,1,.73-.47h1.61a.78.78,0,0,1,.79.78V290.9A.3.3,0,0,1,200.74,291.19Z" transform="translate(-2.09 -4.76)"/><path class="cls-3" d="M212.32,291.07a18.3,18.3,0,0,1-3.74.28c-2.56,0-4.55-.69-4.55-4v-6.87c0-3.35,2-4,4.55-4a19.52,19.52,0,0,1,3.74.27c.3,0,.39.14.39.42v1.26a.38.38,0,0,1-.39.39h-4c-1.14,0-1.55.4-1.55,1.7v2.12h5.33a.4.4,0,0,1,.4.4v1.42a.4.4,0,0,1-.4.39h-5.33v2.54c0,1.3.41,1.7,1.55,1.7h4a.38.38,0,0,1,.39.39v1.26C212.71,290.94,212.62,291,212.32,291.07Z" transform="translate(-2.09 -4.76)"/><path class="cls-3" d="M225.66,291.19h-2a1.06,1.06,0,0,1-1.2-.71l-4.38-9.59c-.05-.12-.11-.16-.17-.16s-.1,0-.1.16v9.91a.38.38,0,0,1-.38.39h-1.67a.38.38,0,0,1-.39-.39V277.34a.78.78,0,0,1,.78-.78h2.13c.42,0,.63.11.87.63l4.59,10.12c0,.1.1.16.16.16s.09-.06.09-.18V276.93a.36.36,0,0,1,.38-.37h1.69a.36.36,0,0,1,.38.37V290.4A.79.79,0,0,1,225.66,291.19Z" transform="translate(-2.09 -4.76)"/><path class="cls-3" d="M237.87,278.84h-3.44v12a.39.39,0,0,1-.4.39h-1.95a.39.39,0,0,1-.39-.39v-12h-3.45a.36.36,0,0,1-.39-.35v-1.56a.37.37,0,0,1,.39-.37h9.63a.38.38,0,0,1,.4.37v1.56A.37.37,0,0,1,237.87,278.84Z" transform="translate(-2.09 -4.76)"/><path class="cls-3" d="M249.28,291.19h-2.09a.41.41,0,0,1-.37-.33l-.91-3.74h-4.53l-.9,3.74a.41.41,0,0,1-.38.33H238a.34.34,0,0,1-.35-.33.87.87,0,0,0,0-.1l3.23-12.35a2.87,2.87,0,0,1,5.47,0l3.24,12.35a.87.87,0,0,0,0,.1A.34.34,0,0,1,249.28,291.19ZM244,279c-.06-.24-.12-.32-.31-.32s-.26.08-.32.32l-1.42,5.85h3.47Z" transform="translate(-2.09 -4.76)"/><path class="cls-3" d="M259,291.07a21,21,0,0,1-3.34.28c-2.57,0-4.56-.69-4.56-4V277a.39.39,0,0,1,.4-.39h1.95a.38.38,0,0,1,.39.39v10.36c0,1.3.4,1.7,1.54,1.7H259a.39.39,0,0,1,.4.39v1.26C259.39,290.94,259.29,291,259,291.07Z" transform="translate(-2.09 -4.76)"/><path class="cls-3" d="M39.49,315.9h-2.7a.55.55,0,0,1-.54-.55V307H28.51v8.34a.55.55,0,0,1-.55.55h-2.7a.55.55,0,0,1-.54-.55V296.17a.52.52,0,0,1,.54-.52H28a.53.53,0,0,1,.55.52v7.52h7.74v-7.52a.52.52,0,0,1,.54-.52h2.7a.52.52,0,0,1,.54.52v19.18A.55.55,0,0,1,39.49,315.9Z" transform="translate(-2.09 -4.76)"/><path class="cls-3" d="M57.31,315.9H54.42a.59.59,0,0,1-.52-.47l-1.25-5.17H46.38l-1.25,5.17a.58.58,0,0,1-.52.47H41.72a.47.47,0,0,1-.49-.47.86.86,0,0,0,0-.13l4.47-17.09a3.5,3.5,0,0,1,3.79-2.78,3.5,3.5,0,0,1,3.78,2.78l4.47,17.09a.86.86,0,0,0,0,.13A.47.47,0,0,1,57.31,315.9ZM50,299.05c-.08-.32-.16-.43-.43-.43s-.36.11-.44.43l-2,8.1h4.79Z" transform="translate(-2.09 -4.76)"/><path class="cls-3" d="M65.81,316.11c-4.39,0-7.49-1.9-7.49-7.71V296.17a.52.52,0,0,1,.54-.52h2.7a.52.52,0,0,1,.54.52V308.4c0,3.11.77,4.58,3.71,4.58s3.71-1.47,3.71-4.58V296.17a.52.52,0,0,1,.54-.52h2.7a.52.52,0,0,1,.54.52V308.4C73.3,314.21,70.2,316.11,65.81,316.11Z" transform="translate(-2.09 -4.76)"/><path class="cls-3" d="M88.4,298.81H83.63v16.54a.55.55,0,0,1-.54.55h-2.7a.55.55,0,0,1-.55-.55V298.81H75.07a.5.5,0,0,1-.54-.49v-2.15a.52.52,0,0,1,.54-.52H88.4a.53.53,0,0,1,.55.52v2.15A.51.51,0,0,1,88.4,298.81Z" transform="translate(-2.09 -4.76)"/><path class="cls-3" d="M101.1,315.73a25.48,25.48,0,0,1-5.18.38c-3.54,0-6.3-.95-6.3-5.58V301c0-4.64,2.76-5.59,6.3-5.59a26.32,26.32,0,0,1,5.18.38c.41.06.54.19.54.57v1.75a.54.54,0,0,1-.54.54H95.54c-1.58,0-2.16.55-2.16,2.35V304h7.39a.55.55,0,0,1,.55.54v2a.55.55,0,0,1-.55.54H93.38v3.52c0,1.8.58,2.34,2.16,2.34h5.56a.55.55,0,0,1,.54.55v1.74C101.64,315.54,101.51,315.68,101.1,315.73Z" transform="translate(-2.09 -4.76)"/><path class="cls-3" d="M109,308.87h-5.34a.5.5,0,0,1-.54-.49v-1.72a.52.52,0,0,1,.54-.52H109a.5.5,0,0,1,.52.52v1.72A.49.49,0,0,1,109,308.87Z" transform="translate(-2.09 -4.76)"/><path class="cls-3" d="M124,315.65a30.12,30.12,0,0,1-5.94.46c-2.94,0-7.3-1.93-7.3-8.36v-3.93c0-6.45,4.14-8.39,7.38-8.39a36.34,36.34,0,0,1,5.86.49c.35.08.52.22.52.57v1.83c0,.38-.11.57-.55.57h-.08c-1.25-.11-3.13-.22-5.75-.22-1.82,0-3.57,1.28-3.57,5.15v3.93c0,3.87,1.88,5.12,3.49,5.12,1,0,1.85,0,2.7-.08v-7a.53.53,0,0,1,.52-.55H124a.55.55,0,0,1,.55.55V315A.61.61,0,0,1,124,315.65Z" transform="translate(-2.09 -4.76)"/><path class="cls-3" d="M141.83,315.9H139a.57.57,0,0,1-.52-.47l-1.26-5.17h-6.26l-1.26,5.17a.57.57,0,0,1-.52.47h-2.88a.47.47,0,0,1-.5-.47.86.86,0,0,0,0-.13l4.47-17.09a4,4,0,0,1,7.58,0l4.47,17.09a1.23,1.23,0,0,0,0,.13A.46.46,0,0,1,141.83,315.9Zm-7.35-16.85c-.09-.32-.17-.43-.44-.43s-.35.11-.44.43l-2,8.1h4.8Z" transform="translate(-2.09 -4.76)"/><path class="cls-3" d="M157.91,315.9h-3.32c-.3,0-.41-.28-.55-.55l-3.92-7.27h-.38c-.71,0-1.8-.09-2.43-.11v7.38a.53.53,0,0,1-.52.55h-2.72a.55.55,0,0,1-.55-.55V296.6c0-.54.33-.73.87-.82a38.64,38.64,0,0,1,5.35-.35c4.19,0,7.84,1.5,7.84,6.16v.24a5.52,5.52,0,0,1-3.68,5.56l4.28,8a.35.35,0,0,1,.06.22A.3.3,0,0,1,157.91,315.9Zm-4.09-14.31c0-2-1.36-2.92-4.08-2.92-.58,0-1.94.06-2.43.11v6.13c.44,0,2,.09,2.43.09,2.8,0,4.08-.77,4.08-3.17Z" transform="translate(-2.09 -4.76)"/><path class="cls-3" d="M166.63,316.11c-4.5,0-7.77-2.5-7.77-8.5v-3.68c0-6,3.27-8.5,7.77-8.5s7.77,2.51,7.77,8.5v3.68C174.4,313.61,171.13,316.11,166.63,316.11Zm4-12.18c0-3.59-1.28-5.2-4-5.2s-3.95,1.61-3.95,5.2v3.68c0,3.6,1.28,5.21,3.95,5.21s4-1.61,4-5.21Z" transform="translate(-2.09 -4.76)"/><path class="cls-3" d="M190.8,315.9h-2.75a1.47,1.47,0,0,1-1.67-1l-6-13.28c-.08-.16-.16-.21-.24-.21s-.14.05-.14.21v13.71a.52.52,0,0,1-.51.55h-2.32a.55.55,0,0,1-.55-.55V296.74a1.09,1.09,0,0,1,1.09-1.09h3c.57,0,.87.16,1.2.87l6.35,14c.05.13.13.22.21.22s.14-.09.14-.25V296.17a.5.5,0,0,1,.52-.52h2.34a.5.5,0,0,1,.52.52v18.64A1.09,1.09,0,0,1,190.8,315.9Z" transform="translate(-2.09 -4.76)"/><path class="cls-3" d="M208.84,315.9h-2.76a1.47,1.47,0,0,1-1.66-1l-6-13.28c-.08-.16-.16-.21-.24-.21s-.14.05-.14.21v13.71a.53.53,0,0,1-.52.55h-2.31a.55.55,0,0,1-.55-.55V296.74a1.09,1.09,0,0,1,1.09-1.09h3c.57,0,.87.16,1.19.87l6.35,14c.06.13.14.22.22.22s.14-.09.14-.25V296.17a.5.5,0,0,1,.52-.52h2.34a.5.5,0,0,1,.52.52v18.64A1.09,1.09,0,0,1,208.84,315.9Z" transform="translate(-2.09 -4.76)"/><path class="cls-3" d="M224.12,315.73a25.35,25.35,0,0,1-5.17.38c-3.55,0-6.3-.95-6.3-5.58V301c0-4.64,2.75-5.59,6.3-5.59a26.17,26.17,0,0,1,5.17.38c.41.06.55.19.55.57v1.75a.55.55,0,0,1-.55.54h-5.56c-1.58,0-2.15.55-2.15,2.35V304h7.39a.54.54,0,0,1,.54.54v2a.54.54,0,0,1-.54.54h-7.39v3.52c0,1.8.57,2.34,2.15,2.34h5.56a.55.55,0,0,1,.55.55v1.74C224.67,315.54,224.53,315.68,224.12,315.73Z" transform="translate(-2.09 -4.76)"/><rect class="cls-4" x="22.67" y="251.61" width="29.95" height="10.43"/><rect class="cls-5" x="56.97" y="251.61" width="29.95" height="10.43"/><rect class="cls-6" x="91.27" y="251.61" width="29.95" height="10.44"/><rect class="cls-7" x="125.57" y="251.61" width="29.95" height="10.44"/><rect class="cls-8" x="159.88" y="251.61" width="29.95" height="10.44"/><rect class="cls-9" x="194.18" y="251.61" width="29.95" height="10.44"/><rect class="cls-10" x="228.48" y="251.61" width="29.95" height="10.44"/><path class="cls-11" d="M229.68,315.9h-2.42a.55.55,0,0,1-.55-.55v-3.08a.53.53,0,0,1,.55-.52h2.42a.53.53,0,0,1,.55.52v3.08A.55.55,0,0,1,229.68,315.9Z" transform="translate(-2.09 -4.76)"/><path class="cls-11" d="M244.15,298.67h-5.56c-1.58,0-2.15.55-2.15,2.35V304h7.38a.55.55,0,0,1,.55.54v2a.55.55,0,0,1-.55.54h-7.38v8.34a.55.55,0,0,1-.55.55h-2.67a.55.55,0,0,1-.54-.55V301c0-4.64,2.75-5.59,6.29-5.59a26.22,26.22,0,0,1,5.18.38c.41.06.55.19.55.57v1.75A.55.55,0,0,1,244.15,298.67Z" transform="translate(-2.09 -4.76)"/><path class="cls-11" d="M261.4,315.9h-3.32c-.3,0-.41-.28-.55-.55l-3.92-7.27h-.39c-.7,0-1.79-.09-2.42-.11v7.38a.53.53,0,0,1-.52.55h-2.72a.55.55,0,0,1-.55-.55V296.6c0-.54.33-.73.87-.82a38.49,38.49,0,0,1,5.34-.35c4.2,0,7.85,1.5,7.85,6.16v.24a5.52,5.52,0,0,1-3.68,5.56l4.28,8a.35.35,0,0,1,.06.22A.3.3,0,0,1,261.4,315.9Zm-4.09-14.31c0-2-1.36-2.92-4.09-2.92-.57,0-1.93.06-2.42.11v6.13c.43,0,2,.09,2.42.09,2.81,0,4.09-.77,4.09-3.17Z" transform="translate(-2.09 -4.76)"/><g class="cls-12"><path class="cls-3" d="M208,63.49c-10.81,1.32-25.39,4.19-40.92,7.68,8.29-22.83,18.8-51.28,20.06-54.11,1.62-3.64,2-7.29,1.3-9.11-12.66,14.2-25.94,39.59-38.24,67.16-8.59,2.06-17.16,4.2-25.26,6.29,5.89-17.62,10.48-33.31,13.24-43.48,0,0-3.13-3-4.64-4.39A4.9,4.9,0,0,0,129,32.32,17,17,0,0,0,123,35a23.37,23.37,0,0,0-2.48,6.63c-3.87,16.41-7.8,30.9-11.78,44-18.88,5-32.36,8.84-32.36,8.84-3.61-4.63-18.7-9.94-18-3.31s.66,7.46.86,10.42c.21,3.34,6.42,8.45,22.51,6.16,3.88-.57,11.58-2.26,21.48-4.72C92,136.5,80.29,161.56,68.11,190.48c18.94-13.73,37.21-54.16,50.75-91.51,7.53-2,15.66-4.32,24-6.79-7.29,17.31-14.09,34.74-20,50.22-3.48,7.95-3.64,13.92-2.48,17.24,1,2.89,2.15,6.13,8.95,9.61,1.83-10.11,23.66-58.56,31.48-80.45.27-.77.56-1.58.86-2.41,14.88-4.79,29.33-9.93,40.94-14.94Z" transform="translate(-2.09 -4.76)"/></g></svg>